 <svg  version="1.0" xmlns="http://www.w3.org/2000/svg"  width="300.000000pt" height="300.000000pt" viewBox="0 0 300.000000 300.000000"  preserveAspectRatio="xMidYMid meet">  <g transform="translate(0.000000,300.000000) scale(0.100000,-0.100000)" fill="#ff0000" stroke="none"> <path d="M1405 2904 c-79 -41 -108 -92 -115 -203 l-5 -84 -82 -27 c-87 -29 -194 -84 -258 -133 -151 -115 -280 -294 -329 -457 -41 -135 -46 -200 -46 -645 l0 -430 -140 -140 -140 -140 0 -72 0 -73 1210 0 1210 0 0 74 0 74 -144 138 -145 137 -3 476 -4 476 -27 88 c-34 109 -58 163 -115 252 -113 177 -299 318 -501 381 l-61 19 0 58 c0 31 0 59 0 62 -1 3 -8 24 -16 47 -18 51 -66 104 -113 124 -44 19 -138 18 -176 -2z"/> <path d="M569 2887 c-161 -122 -327 -330 -421 -525 -74 -156 -129 -357 -141 -519 l-4 -53 137 0 137 0 16 103 c33 199 94 350 208 517 62 91 160 196 240 257 l49 37 -97 98 c-54 54 -100 98 -103 98 -3 0 -12 -6 -21 -13z"/> <path d="M2307 2802 l-97 -98 67 -58 c241 -205 392 -487 428 -798 l6 -58 140 0 140 0 -6 58 c-32 291 -125 537 -288 758 -53 73 -238 263 -273 282 -18 10 -31 0 -117 -86z"/> <path d="M1498 352 l-278 -2 0 -33 c0 -45 44 -130 88 -168 62 -55 114 -72 201 -67 92 6 143 29 198 92 38 43 79 139 71 168 -2 10 -61 12 -280 10z"/> </g> </svg> 